# xmcd CD database file
#
# Track frame offsets:
#	150
#	28515
#	42273
#	75895
#	120299
#	153578
#	176223
#
# Disc length: 2722 seconds
#
# Revision: 0
# Processed by: cddbd v1.4PL0 Copyright (c) Steve Scherf et al.
# Submitted via: CDex 1.50
#
DISCID=470aa007
DTITLE=John Coates and Eric Doney - Duets
DYEAR=1999
DGENRE=Jazz
TTITLE0=Lauren
TTITLE1=And Why Not
TTITLE2=Epilog #99
TTITLE3=Allen's Town
TTITLE4=It's You Again
TTITLE5=Utilitarian Samba
TTITLE6=Arm Cluster Stomp
EXTD=YEAR: 1999
EXTT0=
EXTT1=
EXTT2=
EXTT3=
EXTT4=
EXTT5=
EXTT6=
PLAYORDER=
